<svg width="86" height="78" viewBox="0 0 86 78" fill="none" xmlns="http://www.w3.org/2000/svg">
<path d="M37.1833 14.8916C32.7979 14.4393 28.7796 12.5208 25.9632 9.53493L20.4292 3.66199C18.4733 1.59452 15.6626 0.293172 12.6146 0.0437863C9.56666 -0.205599 6.53056 0.617365 4.17316 2.33192C3.0066 3.18123 2.04201 4.22399 1.33452 5.40064C0.627034 6.57729 0.190503 7.86477 0.0498243 9.18957C-0.0908544 10.5144 0.0670792 11.8505 0.514635 13.1217C0.96219 14.3929 1.6906 15.5743 2.65823 16.5983L8.19222 22.4894C10.996 25.4668 12.3902 29.2759 12.0868 33.13L10.7033 50.8885C10.0176 59.5776 12.5299 68.2302 17.8698 75.5707L19.6406 78L86 29.6742L83.6204 27.7125C76.3977 21.7464 67.1827 17.9757 57.334 16.9566L37.1833 14.8916Z" fill="#727FFB"/>
</svg>
