<svg width="44" height="44" viewBox="0 0 44 44" fill="none" xmlns="http://www.w3.org/2000/svg">
<path d="M43.6279 27.3221C42.6201 24.116 36.1885 23.1403 28.0702 24.5342C33.963 16.4981 36.3704 8.6572 33.4241 6.21083C30.4777 3.76446 23.1643 7.53505 16.2917 14.7626C16.2078 6.55232 14.0732 0.432932 10.7279 0.0217184C6.46585 -0.50101 1.84683 8.47598 0.419139 20.0597C-0.003903 23.3714 -0.107021 26.7159 0.111203 30.0473C2.07468 29.4172 4.16518 29.2859 6.19256 29.6656C8.21994 30.0452 10.1199 30.9236 11.7194 32.2208C13.319 33.5181 14.5676 35.1931 15.3515 37.0934C16.1353 38.9937 16.4297 41.059 16.2078 43.1015C19.431 42.6954 22.61 41.9955 25.7047 41.0106C36.8813 37.5467 44.9086 31.4063 43.6279 27.3221Z" fill="#FF7054"/>
</svg>
