<svg width="94" height="77" viewBox="0 0 94 77" fill="none" xmlns="http://www.w3.org/2000/svg">
<path d="M22.3182 76.9596C24.0594 71.9867 27.311 67.6765 31.6222 64.6265C35.9335 61.5765 41.0908 59.9379 46.3791 59.9379C51.6674 59.9379 56.8247 61.5765 61.136 64.6265C65.4472 67.6765 68.6988 71.9867 70.4399 76.9596C72.1017 72.212 75.1421 68.0629 79.1754 65.0389C83.2088 62.0148 88.0532 60.2521 93.0941 59.9744C90.8435 55.9799 88.1637 52.2407 85.1018 48.8229L75.8498 38.4589C72.9734 35.2391 71.1619 31.2157 70.6611 26.935C70.1602 22.6544 70.9944 18.324 73.0504 14.5318L80.9027 0C78.6982 2.2094 65.9539 14.0928 46.61 14.0928C27.2662 14.0928 14.5219 2.2094 12.3174 0H12.2824L20.1417 14.5318C22.1885 18.3317 23.0099 22.6674 22.494 26.9488C21.978 31.2302 20.1499 35.2493 17.2583 38.4589L8.01329 48.7811C4.94575 52.1992 2.25898 55.9382 0 59.9326C4.98677 60.2785 9.76135 62.077 13.7296 65.1045C17.6979 68.132 20.6846 72.2547 22.3182 76.9596Z" fill="#4756DF"/>
</svg>
