<svg width="36" height="26" viewBox="0 0 36 26" fill="none" xmlns="http://www.w3.org/2000/svg">
<path d="M26.3512 7.36435C27.4175 7.36678 28.4396 7.92025 29.1936 8.90352C29.9476 9.88678 30.372 11.2197 30.3739 12.6102V13.3898C30.372 14.7803 29.9476 16.1132 29.1936 17.0965C28.4396 18.0797 27.4175 18.6332 26.3512 18.6356H5.62612V7.36435H26.3512ZM26.3512 0.0274841H0.759609C0.659272 0.0274785 0.55991 0.0534306 0.467299 0.103779C0.374688 0.154128 0.290594 0.227906 0.219973 0.320854C0.149352 0.413801 0.0935866 0.524059 0.0558332 0.64529C0.0180799 0.76652 -0.000896505 0.896316 3.25349e-05 1.02716V25.0095C3.25349e-05 25.2722 0.0800248 25.5241 0.222463 25.7099C0.3649 25.8956 0.558171 26 0.759609 26H26.3512C27.62 26 28.8765 25.6736 30.0485 25.0396C31.2205 24.4055 32.2851 23.4762 33.1814 22.3049C34.0776 21.1335 34.7879 19.7432 35.2716 18.2134C35.7552 16.6836 36.0028 15.0445 36 13.3898V12.5827C36 9.24555 34.9834 6.04511 33.1739 3.68539C31.3644 1.32568 28.9102 0 26.3512 0V0.0274841Z" fill="#727FFB"/>
</svg>
