<svg width="110" height="44" viewBox="0 0 110 44" fill="none" xmlns="http://www.w3.org/2000/svg">
<path d="M102.612 0.0019143C97.3223 0.00280391 92.1639 1.64316 87.8524 4.69547C83.541 7.74777 80.2903 12.0607 78.5512 17.0359C76.8134 12.0598 73.563 7.74585 69.2514 4.69304C64.9397 1.64023 59.7807 0 54.4904 0C49.2001 0 44.041 1.64023 39.7294 4.69304C35.4177 7.74585 32.1673 12.0598 30.4295 17.0359C28.3251 11.0232 24.029 6.01742 18.3929 3.01085C12.7567 0.00426695 6.192 -0.783573 0 0.803451C0.355521 16.8875 6.8641 32.2295 18.1961 43.6952H91.1135C102.423 32.2539 108.929 16.9511 109.31 0.900995C107.127 0.30493 104.875 0.00255986 102.612 0.0019143Z" fill="#4756DF"/>
</svg>
