<svg width="133" height="157" viewBox="0 0 133 157" fill="none" xmlns="http://www.w3.org/2000/svg">
<path d="M132.93 151.157L106.938 0H26.0625L0.0699294 151.157C-0.0527729 151.876 -0.013652 152.613 0.184549 153.315C0.382749 154.018 0.735291 154.67 1.21763 155.226C1.69996 155.782 2.30052 156.229 2.97752 156.535C3.65451 156.842 4.39168 157 5.13775 157C6.30997 156.999 7.4466 156.607 8.35931 155.888C9.27203 155.169 9.90605 154.167 10.1562 153.049L44.2005 0H88.8242L122.856 153.049C123.105 154.168 123.739 155.17 124.652 155.889C125.565 156.608 126.702 157 127.875 157C128.62 156.999 129.355 156.839 130.031 156.532C130.706 156.225 131.305 155.778 131.786 155.222C132.267 154.666 132.619 154.014 132.816 153.313C133.014 152.611 133.053 151.875 132.93 151.157Z" fill="#A15842"/>
</svg>
