<svg width="46" height="41" viewBox="0 0 46 41" fill="none" xmlns="http://www.w3.org/2000/svg">
<path d="M41.3746 2.6924C38.1133 1.84906 33.8723 6.76272 30.7719 14.3667C27.0417 5.1318 21.6319 -1.05036 17.9857 0.148433C14.3395 1.34723 13.6886 9.51575 16.215 19.1479C9.17456 14.8824 2.83392 13.4467 0.713373 16.0603C-1.98805 19.3919 3.21883 28.0343 12.3449 35.3734C14.9412 37.4799 17.7348 39.3331 20.6871 40.9074C21.1903 38.9167 22.185 37.0826 23.5808 35.572C24.9765 34.0613 26.7292 32.9219 28.6795 32.2571C30.6297 31.5924 32.7159 31.4235 34.7484 31.7656C36.7809 32.1078 38.6954 32.9502 40.3179 34.2164C41.6857 31.2846 42.7775 28.2327 43.5792 25.1C46.5256 13.8021 45.5388 3.76574 41.3746 2.6924Z" fill="#FF7054"/>
</svg>
