<svg width="132" height="157" viewBox="0 0 132 157" fill="none" xmlns="http://www.w3.org/2000/svg">
<path d="M131.931 151.157L106.108 0H25.8677L0.0694189 151.157C-0.0523664 151.876 -0.0135752 152.613 0.183144 153.315C0.379864 154.018 0.729771 154.67 1.2085 155.226C1.68723 155.782 2.28331 156.229 2.95524 156.535C3.62718 156.842 4.35884 157 5.09933 157C6.26233 157 7.39019 156.608 8.29529 155.889C9.20039 155.17 9.82817 154.167 10.0742 153.049L43.8518 0H88.1482L121.926 153.049C122.173 154.169 122.803 155.172 123.711 155.891C124.618 156.61 125.748 157.001 126.913 157C127.652 156.999 128.383 156.839 129.053 156.532C129.723 156.225 130.318 155.778 130.795 155.222C131.273 154.666 131.622 154.014 131.818 153.313C132.014 152.611 132.052 151.875 131.931 151.157Z" fill="#FFA800"/>
</svg>
