<svg width="110" height="49" viewBox="0 0 110 49" fill="none" xmlns="http://www.w3.org/2000/svg">
<path d="M30.4334 48.7409C32.1713 43.7648 35.4216 39.4508 39.7333 36.398C44.0449 33.3452 49.204 31.705 54.4943 31.705C59.7846 31.705 64.9436 33.3452 69.2553 36.398C73.5669 39.4508 76.8173 43.7648 78.5551 48.7409C80.677 42.6644 85.0377 37.6176 90.7548 34.622C96.4718 31.6264 103.118 30.9058 109.349 32.606C109.636 21.2187 106.829 9.96568 101.223 0.0364991C96.1824 0.314214 91.338 2.07691 87.3046 5.10095C83.2713 8.12498 80.2309 12.274 78.5691 17.0217C76.828 12.0488 73.5764 7.73854 69.2652 4.68857C64.9539 1.6386 59.7966 0 54.5083 0C49.22 0 44.0627 1.6386 39.7514 4.68857C35.4402 7.73854 32.1885 12.0488 30.4474 17.0217C28.8037 12.3285 25.8126 8.21909 21.8451 5.20338C17.8777 2.18768 13.1085 0.398391 8.12921 0.0574287C2.5488 9.95294 -0.253041 21.1624 0.0179492 32.5084C6.20995 30.9214 12.7747 31.7093 18.4108 34.7158C24.0469 37.7224 28.343 42.7282 30.4474 48.7409H30.4334Z" fill="#727FFB"/>
</svg>
